<mxfile host="app.diagrams.net" modified="2023-03-09T09:18:14.502Z" agent="5.0 (Windows NT 10.0; Win64; x64) AppleWebKit/537.36 (KHTML, like Gecko) Chrome/110.0.0.0 Safari/537.36" etag="EybVukE1sp1Yt3XcSmdi" version="21.0.4" type="github">
  <diagram name="หน้า-1" id="q-qzMz5mrKEM_da2ofaJ">
    <mxGraphModel dx="1050" dy="549" grid="1" gridSize="10" guides="1" tooltips="1" connect="1" arrows="1" fold="1" page="1" pageScale="1" pageWidth="827" pageHeight="1169" math="0" shadow="0">
      <root>
        <mxCell id="0" />
        <mxCell id="1" parent="0" />
        <mxCell id="OroZB2_ZIQIVF__qFr04-3" value="" style="edgeStyle=orthogonalEdgeStyle;rounded=0;orthogonalLoop=1;jettySize=auto;html=1;" edge="1" parent="1" source="OroZB2_ZIQIVF__qFr04-1" target="OroZB2_ZIQIVF__qFr04-2">
          <mxGeometry relative="1" as="geometry" />
        </mxCell>
        <mxCell id="OroZB2_ZIQIVF__qFr04-1" value="1" style="ellipse;whiteSpace=wrap;html=1;aspect=fixed;" vertex="1" parent="1">
          <mxGeometry x="400" y="40" width="60" height="60" as="geometry" />
        </mxCell>
        <mxCell id="OroZB2_ZIQIVF__qFr04-5" value="" style="edgeStyle=orthogonalEdgeStyle;rounded=0;orthogonalLoop=1;jettySize=auto;html=1;" edge="1" parent="1" source="OroZB2_ZIQIVF__qFr04-2" target="OroZB2_ZIQIVF__qFr04-4">
          <mxGeometry relative="1" as="geometry" />
        </mxCell>
        <mxCell id="OroZB2_ZIQIVF__qFr04-2" value="เล่นmini game" style="whiteSpace=wrap;html=1;" vertex="1" parent="1">
          <mxGeometry x="370.5" y="150" width="120" height="60" as="geometry" />
        </mxCell>
        <mxCell id="OroZB2_ZIQIVF__qFr04-13" style="edgeStyle=orthogonalEdgeStyle;rounded=0;orthogonalLoop=1;jettySize=auto;html=1;exitX=0.5;exitY=1;exitDx=0;exitDy=0;" edge="1" parent="1" source="OroZB2_ZIQIVF__qFr04-4" target="OroZB2_ZIQIVF__qFr04-10">
          <mxGeometry relative="1" as="geometry" />
        </mxCell>
        <mxCell id="OroZB2_ZIQIVF__qFr04-4" value="เจอ NPC" style="whiteSpace=wrap;html=1;" vertex="1" parent="1">
          <mxGeometry x="370.5" y="270" width="120" height="60" as="geometry" />
        </mxCell>
        <mxCell id="OroZB2_ZIQIVF__qFr04-8" style="edgeStyle=orthogonalEdgeStyle;rounded=1;orthogonalLoop=1;jettySize=auto;html=1;exitX=1;exitY=0.5;exitDx=0;exitDy=0;entryX=0;entryY=0.5;entryDx=0;entryDy=0;labelBackgroundColor=none;fontColor=default;" edge="1" parent="1" source="OroZB2_ZIQIVF__qFr04-10" target="OroZB2_ZIQIVF__qFr04-12">
          <mxGeometry relative="1" as="geometry" />
        </mxCell>
        <mxCell id="OroZB2_ZIQIVF__qFr04-9" style="edgeStyle=orthogonalEdgeStyle;rounded=1;orthogonalLoop=1;jettySize=auto;html=1;exitX=0;exitY=0.5;exitDx=0;exitDy=0;labelBackgroundColor=none;fontColor=default;" edge="1" parent="1" source="OroZB2_ZIQIVF__qFr04-10" target="OroZB2_ZIQIVF__qFr04-11">
          <mxGeometry relative="1" as="geometry" />
        </mxCell>
        <mxCell id="OroZB2_ZIQIVF__qFr04-10" value="เลือกตอบ" style="rhombus;whiteSpace=wrap;html=1;labelBackgroundColor=none;rounded=1;arcSize=0;" vertex="1" parent="1">
          <mxGeometry x="395.5" y="370" width="70" height="70" as="geometry" />
        </mxCell>
        <mxCell id="OroZB2_ZIQIVF__qFr04-16" style="edgeStyle=orthogonalEdgeStyle;rounded=0;orthogonalLoop=1;jettySize=auto;html=1;exitX=0.5;exitY=1;exitDx=0;exitDy=0;entryX=0.5;entryY=0;entryDx=0;entryDy=0;" edge="1" parent="1" source="OroZB2_ZIQIVF__qFr04-11" target="OroZB2_ZIQIVF__qFr04-15">
          <mxGeometry relative="1" as="geometry" />
        </mxCell>
        <mxCell id="OroZB2_ZIQIVF__qFr04-11" value="ใช้" style="whiteSpace=wrap;html=1;labelBackgroundColor=none;rounded=1;arcSize=0;" vertex="1" parent="1">
          <mxGeometry x="260.5" y="385" width="93" height="40" as="geometry" />
        </mxCell>
        <mxCell id="OroZB2_ZIQIVF__qFr04-17" style="edgeStyle=orthogonalEdgeStyle;rounded=0;orthogonalLoop=1;jettySize=auto;html=1;exitX=0.5;exitY=1;exitDx=0;exitDy=0;" edge="1" parent="1" source="OroZB2_ZIQIVF__qFr04-12" target="OroZB2_ZIQIVF__qFr04-14">
          <mxGeometry relative="1" as="geometry" />
        </mxCell>
        <mxCell id="OroZB2_ZIQIVF__qFr04-12" value="ไม่" style="whiteSpace=wrap;html=1;labelBackgroundColor=none;rounded=1;arcSize=0;" vertex="1" parent="1">
          <mxGeometry x="613.5" y="385" width="73" height="40" as="geometry" />
        </mxCell>
        <mxCell id="OroZB2_ZIQIVF__qFr04-30" value="" style="edgeStyle=orthogonalEdgeStyle;rounded=0;orthogonalLoop=1;jettySize=auto;html=1;" edge="1" parent="1" source="OroZB2_ZIQIVF__qFr04-14" target="OroZB2_ZIQIVF__qFr04-29">
          <mxGeometry relative="1" as="geometry" />
        </mxCell>
        <mxCell id="OroZB2_ZIQIVF__qFr04-14" value="บทสนทนาที่2" style="whiteSpace=wrap;html=1;labelBackgroundColor=none;rounded=1;arcSize=0;" vertex="1" parent="1">
          <mxGeometry x="613.5" y="470" width="73" height="40" as="geometry" />
        </mxCell>
        <mxCell id="OroZB2_ZIQIVF__qFr04-44" style="edgeStyle=orthogonalEdgeStyle;rounded=0;orthogonalLoop=1;jettySize=auto;html=1;exitX=0.5;exitY=1;exitDx=0;exitDy=0;" edge="1" parent="1" source="OroZB2_ZIQIVF__qFr04-15" target="OroZB2_ZIQIVF__qFr04-41">
          <mxGeometry relative="1" as="geometry" />
        </mxCell>
        <mxCell id="OroZB2_ZIQIVF__qFr04-15" value="บทสนทนาที่1" style="whiteSpace=wrap;html=1;labelBackgroundColor=none;rounded=1;arcSize=0;" vertex="1" parent="1">
          <mxGeometry x="260.5" y="460" width="93" height="40" as="geometry" />
        </mxCell>
        <mxCell id="OroZB2_ZIQIVF__qFr04-28" value="" style="edgeStyle=orthogonalEdgeStyle;rounded=0;orthogonalLoop=1;jettySize=auto;html=1;" edge="1" parent="1" target="OroZB2_ZIQIVF__qFr04-27">
          <mxGeometry relative="1" as="geometry">
            <mxPoint x="186.5" y="730" as="sourcePoint" />
          </mxGeometry>
        </mxCell>
        <mxCell id="OroZB2_ZIQIVF__qFr04-27" value="2" style="ellipse;whiteSpace=wrap;html=1;labelBackgroundColor=none;rounded=1;arcSize=0;" vertex="1" parent="1">
          <mxGeometry x="146.5" y="800" width="80" height="80" as="geometry" />
        </mxCell>
        <mxCell id="OroZB2_ZIQIVF__qFr04-35" value="" style="edgeStyle=orthogonalEdgeStyle;rounded=0;orthogonalLoop=1;jettySize=auto;html=1;" edge="1" parent="1" source="OroZB2_ZIQIVF__qFr04-29" target="OroZB2_ZIQIVF__qFr04-34">
          <mxGeometry relative="1" as="geometry" />
        </mxCell>
        <mxCell id="OroZB2_ZIQIVF__qFr04-29" value="เหตุการณ์" style="whiteSpace=wrap;html=1;labelBackgroundColor=none;rounded=1;arcSize=0;" vertex="1" parent="1">
          <mxGeometry x="590" y="555" width="120" height="60" as="geometry" />
        </mxCell>
        <mxCell id="OroZB2_ZIQIVF__qFr04-31" value="เหตุการณ์" style="whiteSpace=wrap;html=1;labelBackgroundColor=none;rounded=1;arcSize=0;" vertex="1" parent="1">
          <mxGeometry x="126.5" y="670" width="120" height="60" as="geometry" />
        </mxCell>
        <mxCell id="OroZB2_ZIQIVF__qFr04-34" value="4" style="ellipse;whiteSpace=wrap;html=1;labelBackgroundColor=none;rounded=1;arcSize=0;" vertex="1" parent="1">
          <mxGeometry x="610" y="670" width="80" height="80" as="geometry" />
        </mxCell>
        <mxCell id="OroZB2_ZIQIVF__qFr04-39" style="edgeStyle=orthogonalEdgeStyle;rounded=1;orthogonalLoop=1;jettySize=auto;html=1;exitX=1;exitY=0.5;exitDx=0;exitDy=0;entryX=0;entryY=0.5;entryDx=0;entryDy=0;labelBackgroundColor=none;fontColor=default;" edge="1" parent="1" source="OroZB2_ZIQIVF__qFr04-41" target="OroZB2_ZIQIVF__qFr04-43">
          <mxGeometry relative="1" as="geometry" />
        </mxCell>
        <mxCell id="OroZB2_ZIQIVF__qFr04-40" style="edgeStyle=orthogonalEdgeStyle;rounded=1;orthogonalLoop=1;jettySize=auto;html=1;exitX=0;exitY=0.5;exitDx=0;exitDy=0;labelBackgroundColor=none;fontColor=default;" edge="1" parent="1" source="OroZB2_ZIQIVF__qFr04-41" target="OroZB2_ZIQIVF__qFr04-42">
          <mxGeometry relative="1" as="geometry" />
        </mxCell>
        <mxCell id="OroZB2_ZIQIVF__qFr04-41" value="เลือกตอบ" style="rhombus;whiteSpace=wrap;html=1;labelBackgroundColor=none;rounded=1;arcSize=0;" vertex="1" parent="1">
          <mxGeometry x="272" y="540" width="70" height="70" as="geometry" />
        </mxCell>
        <mxCell id="OroZB2_ZIQIVF__qFr04-49" style="edgeStyle=orthogonalEdgeStyle;rounded=0;orthogonalLoop=1;jettySize=auto;html=1;exitX=0.5;exitY=1;exitDx=0;exitDy=0;entryX=0.5;entryY=0;entryDx=0;entryDy=0;" edge="1" parent="1" source="OroZB2_ZIQIVF__qFr04-42" target="OroZB2_ZIQIVF__qFr04-31">
          <mxGeometry relative="1" as="geometry" />
        </mxCell>
        <mxCell id="OroZB2_ZIQIVF__qFr04-42" value="ใช้" style="whiteSpace=wrap;html=1;labelBackgroundColor=none;rounded=1;arcSize=0;" vertex="1" parent="1">
          <mxGeometry x="140" y="555" width="93" height="40" as="geometry" />
        </mxCell>
        <mxCell id="OroZB2_ZIQIVF__qFr04-56" style="edgeStyle=orthogonalEdgeStyle;rounded=0;orthogonalLoop=1;jettySize=auto;html=1;exitX=0.5;exitY=1;exitDx=0;exitDy=0;entryX=0.5;entryY=0;entryDx=0;entryDy=0;" edge="1" parent="1" source="OroZB2_ZIQIVF__qFr04-43" target="OroZB2_ZIQIVF__qFr04-53">
          <mxGeometry relative="1" as="geometry" />
        </mxCell>
        <mxCell id="OroZB2_ZIQIVF__qFr04-43" value="ไม่" style="whiteSpace=wrap;html=1;labelBackgroundColor=none;rounded=1;arcSize=0;" vertex="1" parent="1">
          <mxGeometry x="392.5" y="555" width="73" height="40" as="geometry" />
        </mxCell>
        <mxCell id="OroZB2_ZIQIVF__qFr04-46" value="" style="edgeStyle=orthogonalEdgeStyle;rounded=0;orthogonalLoop=1;jettySize=auto;html=1;" edge="1" parent="1" target="OroZB2_ZIQIVF__qFr04-47">
          <mxGeometry relative="1" as="geometry">
            <mxPoint x="406" y="890" as="sourcePoint" />
          </mxGeometry>
        </mxCell>
        <mxCell id="OroZB2_ZIQIVF__qFr04-47" value="3" style="ellipse;whiteSpace=wrap;html=1;labelBackgroundColor=none;rounded=1;arcSize=0;" vertex="1" parent="1">
          <mxGeometry x="366" y="960" width="80" height="80" as="geometry" />
        </mxCell>
        <mxCell id="OroZB2_ZIQIVF__qFr04-48" value="เหตุการณ์" style="whiteSpace=wrap;html=1;labelBackgroundColor=none;rounded=1;arcSize=0;" vertex="1" parent="1">
          <mxGeometry x="340" y="830" width="120" height="60" as="geometry" />
        </mxCell>
        <mxCell id="OroZB2_ZIQIVF__qFr04-51" style="edgeStyle=orthogonalEdgeStyle;rounded=1;orthogonalLoop=1;jettySize=auto;html=1;exitX=1;exitY=0.5;exitDx=0;exitDy=0;entryX=0;entryY=0.5;entryDx=0;entryDy=0;labelBackgroundColor=none;fontColor=default;" edge="1" parent="1" source="OroZB2_ZIQIVF__qFr04-53" target="OroZB2_ZIQIVF__qFr04-55">
          <mxGeometry relative="1" as="geometry" />
        </mxCell>
        <mxCell id="OroZB2_ZIQIVF__qFr04-52" style="edgeStyle=orthogonalEdgeStyle;rounded=1;orthogonalLoop=1;jettySize=auto;html=1;exitX=0;exitY=0.5;exitDx=0;exitDy=0;labelBackgroundColor=none;fontColor=default;" edge="1" parent="1" source="OroZB2_ZIQIVF__qFr04-53" target="OroZB2_ZIQIVF__qFr04-54">
          <mxGeometry relative="1" as="geometry" />
        </mxCell>
        <mxCell id="OroZB2_ZIQIVF__qFr04-53" value="เลือกตอบ" style="rhombus;whiteSpace=wrap;html=1;labelBackgroundColor=none;rounded=1;arcSize=0;" vertex="1" parent="1">
          <mxGeometry x="394" y="670" width="70" height="70" as="geometry" />
        </mxCell>
        <mxCell id="OroZB2_ZIQIVF__qFr04-58" style="edgeStyle=orthogonalEdgeStyle;rounded=0;orthogonalLoop=1;jettySize=auto;html=1;exitX=0.5;exitY=1;exitDx=0;exitDy=0;" edge="1" parent="1" source="OroZB2_ZIQIVF__qFr04-54" target="OroZB2_ZIQIVF__qFr04-27">
          <mxGeometry relative="1" as="geometry" />
        </mxCell>
        <mxCell id="OroZB2_ZIQIVF__qFr04-54" value="ใช้" style="whiteSpace=wrap;html=1;labelBackgroundColor=none;rounded=1;arcSize=0;" vertex="1" parent="1">
          <mxGeometry x="278" y="685" width="93" height="40" as="geometry" />
        </mxCell>
        <mxCell id="OroZB2_ZIQIVF__qFr04-57" style="edgeStyle=orthogonalEdgeStyle;rounded=0;orthogonalLoop=1;jettySize=auto;html=1;exitX=0.5;exitY=1;exitDx=0;exitDy=0;" edge="1" parent="1" source="OroZB2_ZIQIVF__qFr04-55" target="OroZB2_ZIQIVF__qFr04-48">
          <mxGeometry relative="1" as="geometry" />
        </mxCell>
        <mxCell id="OroZB2_ZIQIVF__qFr04-55" value="ไม่" style="whiteSpace=wrap;html=1;labelBackgroundColor=none;rounded=1;arcSize=0;" vertex="1" parent="1">
          <mxGeometry x="488" y="685" width="73" height="40" as="geometry" />
        </mxCell>
      </root>
    </mxGraphModel>
  </diagram>
</mxfile>
